<svg width="676" height="649" viewBox="0 0 676 649" fill="none" xmlns="http://www.w3.org/2000/svg">
<mask id="mask0_341_618" style="mask-type:alpha" maskUnits="userSpaceOnUse" x="25" y="0" width="651" height="649">
<mask id="path-1-outside-1_341_618" maskUnits="userSpaceOnUse" x="25.002" y="-0.875" width="651" height="650" fill="black">
<rect fill="white" x="25.002" y="-0.875" width="651" height="650"/>
<path d="M350.932 161.686L371.359 0.125L371.2 162.962L411.736 5.22862L391.308 166.79L451.315 15.2764L410.779 173.17L489.298 30.2682L429.132 181.782L525.047 49.8853L446.368 192.787L557.923 73.968L462.167 205.705L587.766 101.878L476.052 220.538L613.78 133.298L488.021 237.124L635.644 167.747L497.916 254.987L653.04 204.589L505.417 273.966L665.647 243.344L510.524 293.743L673.308 283.376L513.077 313.838L675.861 324.045L513.077 334.253L673.308 364.715L510.524 354.508L665.647 404.746L505.417 374.284L653.04 443.661L497.916 393.263L635.644 480.503L488.021 411.126L613.78 514.953L476.052 427.553L587.766 546.372L462.167 442.385L557.923 574.282L446.368 455.463L525.047 598.205L429.132 466.309L489.298 617.822L410.779 475.08L451.315 632.814L391.308 481.301L411.736 643.021L371.2 485.128L371.359 648.125L350.932 486.404L330.504 648.125L330.504 485.128L289.967 643.021L310.555 481.301L250.548 632.814L291.085 475.08L212.565 617.822L272.732 466.309L176.817 598.205L255.496 455.463L143.781 574.282L239.696 442.385L114.097 546.372L225.811 427.553L88.0833 514.953L213.842 411.126L66.2192 480.503L203.947 393.263L48.8236 443.661L196.446 374.284L36.2159 404.746L191.339 354.508L28.5554 364.715L188.786 334.253L26.002 324.045L188.786 313.838L28.5554 283.376L191.339 293.743L36.2159 243.344L196.446 273.966L48.8236 204.589L203.947 254.987L66.2192 167.747L213.842 237.124L88.0833 133.298L225.811 220.538L114.097 101.878L239.696 205.705L143.781 73.968L255.496 192.787L176.817 49.8853L272.732 181.782L212.565 30.2682L291.085 173.17L250.548 15.2764L310.555 166.79L289.967 5.22862L330.504 162.962V0.125L350.932 161.686Z"/>
</mask>
<path d="M350.932 161.686L371.359 0.125L371.2 162.962L411.736 5.22862L391.308 166.79L451.315 15.2764L410.779 173.17L489.298 30.2682L429.132 181.782L525.047 49.8853L446.368 192.787L557.923 73.968L462.167 205.705L587.766 101.878L476.052 220.538L613.78 133.298L488.021 237.124L635.644 167.747L497.916 254.987L653.04 204.589L505.417 273.966L665.647 243.344L510.524 293.743L673.308 283.376L513.077 313.838L675.861 324.045L513.077 334.253L673.308 364.715L510.524 354.508L665.647 404.746L505.417 374.284L653.04 443.661L497.916 393.263L635.644 480.503L488.021 411.126L613.78 514.953L476.052 427.553L587.766 546.372L462.167 442.385L557.923 574.282L446.368 455.463L525.047 598.205L429.132 466.309L489.298 617.822L410.779 475.08L451.315 632.814L391.308 481.301L411.736 643.021L371.2 485.128L371.359 648.125L350.932 486.404L330.504 648.125L330.504 485.128L289.967 643.021L310.555 481.301L250.548 632.814L291.085 475.08L212.565 617.822L272.732 466.309L176.817 598.205L255.496 455.463L143.781 574.282L239.696 442.385L114.097 546.372L225.811 427.553L88.0833 514.953L213.842 411.126L66.2192 480.503L203.947 393.263L48.8236 443.661L196.446 374.284L36.2159 404.746L191.339 354.508L28.5554 364.715L188.786 334.253L26.002 324.045L188.786 313.838L28.5554 283.376L191.339 293.743L36.2159 243.344L196.446 273.966L48.8236 204.589L203.947 254.987L66.2192 167.747L213.842 237.124L88.0833 133.298L225.811 220.538L114.097 101.878L239.696 205.705L143.781 73.968L255.496 192.787L176.817 49.8853L272.732 181.782L212.565 30.2682L291.085 173.17L250.548 15.2764L310.555 166.79L289.967 5.22862L330.504 162.962V0.125L350.932 161.686Z" stroke="black" stroke-width="2" stroke-miterlimit="10" mask="url(#path-1-outside-1_341_618)"/>
</mask>
<g mask="url(#mask0_341_618)">
<path d="M-773 18.6251C-773 -6.22775 -752.853 -26.375 -728 -26.375L334.827 -26.375C359.679 -26.375 379.827 -6.22781 379.827 18.625V631.477C379.827 656.33 359.679 676.477 334.827 676.477L-728 676.477C-752.853 676.477 -773 656.33 -773 631.477V18.6251Z" fill="black"/>
</g>
<path d="M95.7147 469.721L141.422 494.625L95.7147 519.729L70.7109 565.335L45.7072 519.729L0.000260592 494.625L45.7072 469.721L70.7109 423.914L95.7147 469.721Z" fill="#B9FF66"/>
<path d="M217.102 243.19L298.777 287.691L217.102 332.55L172.422 414.047L127.742 332.55L46.0665 287.691L127.742 243.19L172.422 161.336L217.102 243.19Z" fill="#191A23"/>
</svg>
